<svg width="23" height="23" viewBox="0 0 23 23" fill="none" xmlns="http://www.w3.org/2000/svg">
<g clip-path="url(#clip0_1247_8248)">
<path d="M-0.382812 0.0383333V0H-0.344479L-0.382812 0.0383333ZM18.7839 0.0383333V0H18.7455L18.7839 0.0383333ZM-0.382812 19.1283V19.1667H-0.344479L-0.382812 19.1283ZM18.7455 19.1667H18.7839V19.1283L18.7455 19.1667Z" fill="#212121"/>
<path d="M-0.382812 0.0383333V0H-0.344479L-0.382812 0.0383333ZM18.7839 0.0383333V0H18.7455L18.7839 0.0383333ZM-0.382812 19.1283V19.1667H-0.344479L-0.382812 19.1283ZM18.7455 19.1667H18.7839V19.1283L18.7455 19.1667Z" fill="#212121"/>
<path d="M0 0.0383333V0H0.0383333L0 0.0383333ZM23 0.0383333V0H22.9617L23 0.0383333ZM0 22.9617V23H0.0383333L0 22.9617ZM22.9617 23H23V22.9617L22.9617 23Z" fill="#212121"/>
<path d="M21.4665 6.51667C21.4665 6.31334 21.3857 6.11834 21.242 5.97456C21.0982 5.83079 20.9032 5.75001 20.6999 5.75H2.29987C2.09654 5.75 1.90153 5.83077 1.75775 5.97455C1.61398 6.11833 1.5332 6.31333 1.5332 6.51667C1.5332 6.72 1.61398 6.915 1.75775 7.05878C1.90153 7.20256 2.09654 7.28333 2.29987 7.28333H2.31056L3.58164 21.7635C3.60547 22.0987 3.75519 22.4124 4.00074 22.6418C4.2463 22.8711 4.56952 22.9991 4.90552 23H18.0332C18.3662 23.0002 18.6871 22.875 18.9321 22.6494C19.177 22.4238 19.3282 22.1143 19.3554 21.7824L20.7046 7.28285C20.9071 7.28165 21.1008 7.2004 21.2436 7.05685C21.3863 6.9133 21.4665 6.71911 21.4665 6.51667ZM17.8451 21.4667H5.09475L3.84969 7.28333H19.1647L17.8451 21.4667Z" fill="#B6B6B6"/>
</g>
<defs>
<clipPath id="clip0_1247_8248">
<rect width="23" height="23" fill="white"/>
</clipPath>
</defs>
</svg>
